<?xml version="1.0" encoding="iso-8859-1"?>
<!-- Uploaded to: SVG Repo, www.svgrepo.com, Generator: SVG Repo Mixer Tools -->
<svg fill="#000000" height="800px" width="800px" version="1.1" id="Layer_1" xmlns="http://www.w3.org/2000/svg" xmlns:xlink="http://www.w3.org/1999/xlink" 
	 viewBox="0 0 512 512" xml:space="preserve">
<g>
	<g>
		<g>
			<path d="M333.2,277.59h177.881c0.529-6.311,0.827-12.684,0.887-19.115H0.032c0.062,6.431,0.358,12.805,0.888,19.115h70.895
				c8.516,0,15.422,6.904,15.422,15.422c0,8.517-6.906,15.422-15.422,15.422H5.409C29.669,424.528,132.808,512,256.001,512
				s226.332-87.472,250.592-203.566H333.2c-8.516,0-15.422-6.904-15.422-15.422C317.779,284.495,324.683,277.59,333.2,277.59z
				 M285.769,414.843H111.205c-0.009,0-0.017,0.002-0.026,0.002c-0.014,0-0.026-0.002-0.04-0.002H97.668
				c-8.516,0-15.422-6.904-15.422-15.422S89.152,384,97.668,384h5.64l38.749-53.654c2.412-3.34,6.062-5.576,10.134-6.209
				c4.068-0.634,8.227,0.39,11.54,2.842l26.513,19.621l35.976-12.621c6.474-2.273,13.67,0.008,17.656,5.59L275.597,384h10.171
				c8.516,0,15.422,6.904,15.422,15.422S294.285,414.843,285.769,414.843z M333.2,384h27.757c8.516,0,15.422,6.904,15.422,15.422
				s-6.906,15.422-15.422,15.422H333.2c-8.516,0-15.422-6.904-15.422-15.422S324.683,384,333.2,384z"/>
			<path d="M112.707,177.167l59.946-53.072c5.231-4.628,12.917-5.168,18.739-1.311l63.23,41.887l69.041-70.112
				c2.884-2.929,6.818-4.585,10.929-4.6c4.076-0.045,8.058,1.61,10.963,4.517l96.415,96.415l67.08,26.201
				C490.253,94.331,383.936,0,256.001,0C124.429,0,15.742,99.775,1.58,227.632h25.993L112.707,177.167z"/>
			<path d="M422.444,214.984l-87.708-87.709l-67.052,68.091c-5.174,5.257-13.355,6.112-19.504,2.036l-63.949-42.362l-52.176,46.194
				c-0.731,0.646-1.521,1.221-2.36,1.72l-42.663,25.287h365.784l-25.079-9.796C425.753,217.671,423.952,216.491,422.444,214.984z"/>
		</g>
	</g>
</g>
</svg>