<?xml version="1.0" ?>
<!-- Uploaded to: SVG Repo, www.svgrepo.com, Generator: SVG Repo Mixer Tools -->
<svg width="800px" height="800px" viewBox="0 0 24 24" version="1.1" xml:space="preserve" xmlns="http://www.w3.org/2000/svg" xmlns:xlink="http://www.w3.org/1999/xlink">
<style type="text/css">
	.st0{opacity:0.2;fill:none;stroke:#000000;stroke-width:5.000000e-02;stroke-miterlimit:10;}
</style>
<g id="Layer_Grid"/>
<g id="Layer_2">
<path d="M7,17c-2.2,0-4,1.8-4,4c0,0.6,0.4,1,1,1h11c0.6,0,1-0.4,1-1c0-2.2-1.8-4-4-4v-1.4c0-1.7,0.5-3.4,1.4-4.9l0.2-0.2l2.2,1.1   c0.2,0.1,0.5,0.3,0.7,0.4c0.6,0.4,1.3,0.8,2.2,0.9c0.1,0,0.1,0,0.2,0c0.4,0,0.8-0.3,1-0.7c0.2-0.6,0-1.3-0.2-1.8l0-0.2   c-0.2-0.6-0.4-1.1-0.7-1.6c-0.1-0.1-0.2-0.2-0.2-0.3l1.9-1.6C20.9,6.6,21,6.2,21,5.9c0-0.3-0.2-0.6-0.5-0.8   c-2.6-1.3-4.9-0.5-6.5,0.8c-0.5-1.4-1.5-3.2-3.6-3.9C10,1.9,9.7,2,9.4,2.2C9.2,2.4,9,2.7,9,3v2.3C8.2,5.4,7.4,5.6,6.6,5.9   C6.2,6.1,5.8,6.3,5.4,6.6c-0.1,0-0.2,0.1-0.3,0.2C5,6.9,4.9,7,4.8,7C4.4,7.1,4.1,7.5,4,7.9C3.9,8.4,4.3,8.9,4.9,9c0,0,0,0,0,0v0   c0,0,0,0,0,0C5,9,5.7,9.1,9.6,9.6C8.3,11.1,7.2,13.5,7,17L7,17z M17.9,6.4L17.2,7c-0.2-0.1-0.5-0.2-0.7-0.3   C16.9,6.5,17.4,6.4,17.9,6.4z M14.8,8.6c0.2,0,0.4-0.1,0.5-0.1c0.7,0,1.4,0.5,1.9,1.3c0.1,0.1,0.2,0.3,0.2,0.4   C17.2,10,17,9.9,16.7,9.8l-2-1L14.8,8.6z M11,4.8c0.2,0.2,0.3,0.4,0.5,0.7c-0.2-0.1-0.3-0.1-0.5-0.1V4.8z M8.4,7.4   c0.5-0.1,1-0.2,1.6-0.2c0,0,0,0,0,0c0,0,0,0,0,0c0.5,0,1.1,0.2,1.5,0.5c0,0-0.1,0.1-0.1,0.1C10.5,7.7,9.4,7.5,8.4,7.4z M11,10.9   c-0.7,1.4-1,3-1,4.6V17H9C9.2,14.1,10.1,12.2,11,10.9z M11,19h1c0.7,0,1.4,0.4,1.7,1H5.3c0.3-0.6,1-1,1.7-1h1H11z"/>
</g>
</svg>