<?xml version="1.0" ?>
<!-- Uploaded to: SVG Repo, www.svgrepo.com, Generator: SVG Repo Mixer Tools -->
<svg width="800px" height="800px" viewBox="0 0 24 24" version="1.1" xml:space="preserve" xmlns="http://www.w3.org/2000/svg" xmlns:xlink="http://www.w3.org/1999/xlink">
<style type="text/css">
	.st0{opacity:0.2;fill:none;stroke:#000000;stroke-width:5.000000e-02;stroke-miterlimit:10;}
</style>
<g id="Layer_Grid"/>
<g id="Layer_2">
<path d="M7,13c0.6,0,1-0.4,1-1V9.9c0.5,0.4,1,0.8,1.6,1C9.7,11,9.8,11,10,11c0.4,0,0.7-0.2,0.9-0.6c0.2-0.5,0-1.1-0.4-1.3   C9.5,8.6,8.7,7.9,8.2,7c0.4,0.3,0.9,0.6,1.4,0.9C9.7,8,9.8,8,10,8c0.4,0,0.7-0.2,0.9-0.6c0.2-0.5,0-1.1-0.4-1.3   c-1.1-0.5-2-1.5-2.6-2.6c-0.3-0.7-1.4-0.7-1.8,0c-0.5,1.1-1.5,2-2.6,2.6C3.1,6.4,2.9,7,3.1,7.4S4,8.1,4.4,7.9   c0.5-0.2,1-0.5,1.4-0.9C5.3,7.9,4.5,8.6,3.6,9.1C3.1,9.4,2.9,10,3.1,10.4s0.8,0.7,1.3,0.4c0.6-0.3,1.1-0.6,1.6-1V12   C6,12.6,6.4,13,7,13z"/>
<path d="M13.6,9.1c-0.5,0.2-0.7,0.8-0.4,1.3c0.2,0.5,0.8,0.7,1.3,0.4c0.6-0.3,1.1-0.6,1.6-1V12c0,0.6,0.4,1,1,1s1-0.4,1-1V9.9   c0.5,0.4,1,0.8,1.6,1C19.7,11,19.8,11,20,11c0.4,0,0.7-0.2,0.9-0.6c0.2-0.5,0-1.1-0.4-1.3c-0.9-0.5-1.7-1.2-2.3-2.1   c0.4,0.3,0.9,0.6,1.4,0.9C19.7,8,19.8,8,20,8c0.4,0,0.7-0.2,0.9-0.6c0.2-0.5,0-1.1-0.4-1.3c-1.1-0.5-2-1.5-2.6-2.6   c-0.3-0.7-1.4-0.7-1.8,0c-0.5,1.1-1.5,2-2.6,2.6c-0.5,0.2-0.7,0.8-0.4,1.3c0.2,0.5,0.8,0.7,1.3,0.4c0.5-0.2,1-0.5,1.4-0.9   C15.3,7.9,14.5,8.6,13.6,9.1z"/>
<path d="M10,16.7c0.2,0,0.3,0,0.5,0.2c0.3,0.2,0.7,0.4,1.5,0.4s1.2-0.3,1.5-0.4c0.2-0.1,0.3-0.2,0.5-0.2c0.2,0,0.3,0,0.5,0.2   c0.3,0.2,0.7,0.4,1.5,0.4s1.2-0.3,1.5-0.4c0.2-0.1,0.3-0.2,0.5-0.2s0.3,0,0.5,0.2c0.3,0.2,0.7,0.4,1.5,0.4c0.6,0,1-0.4,1-1   s-0.4-1-1-1c-0.2,0-0.3,0-0.5-0.2c-0.3-0.2-0.7-0.4-1.5-0.4s-1.2,0.3-1.5,0.4c-0.2,0.1-0.3,0.2-0.5,0.2s-0.3,0-0.5-0.2   c-0.3-0.2-0.7-0.4-1.5-0.4c-0.8,0-1.2,0.3-1.5,0.4c-0.2,0.1-0.3,0.2-0.5,0.2s-0.3,0-0.5-0.2c-0.3-0.2-0.7-0.4-1.5-0.4   c-0.6,0-1,0.4-1,1S9.4,16.7,10,16.7z"/>
<path d="M3,19.8c0.3,0,0.4,0,0.6,0.1C3.9,20,4.3,20.2,5,20.2s1.1-0.2,1.4-0.3c0.2-0.1,0.3-0.1,0.6-0.1c0.3,0,0.4,0,0.6,0.1   C7.9,20,8.3,20.2,9,20.2s1.1-0.2,1.4-0.3c0.2-0.1,0.3-0.1,0.6-0.1c0.6,0,1-0.4,1-1s-0.4-1-1-1c-0.7,0-1.1,0.2-1.4,0.3   c-0.2,0.1-0.3,0.1-0.6,0.1s-0.4,0-0.6-0.1C8.1,18,7.7,17.8,7,17.8c-0.7,0-1.1,0.2-1.4,0.3c-0.2,0.1-0.3,0.1-0.6,0.1s-0.4,0-0.6-0.1   C4.1,18,3.7,17.8,3,17.8c-0.6,0-1,0.4-1,1S2.4,19.8,3,19.8z"/>
</g>
</svg>